# xmcd
#
# Track frame offsets:
#	150
#	15683
#	31209
#	42449
#	54759
#	68311
#	80779
#	93312
#	102390
#	114013
#	127252
#	143707
#	159060
#	171231
#	184593
#	198573
#	213483
#	224136
#
# Disc length: 3177 seconds
#
# Revision: 1
# Processed by: cddbd v1.5.2PL0 Copyright (c) Steve Scherf et al.
# Submitted via: audiograbber 1.83.01
#
DISCID=f70c6712
DTITLE=Various Artist - Country Hits - vol.2
DYEAR=1900
DGENRE=Country
TTITLE0=Black Hills Country Band - Baby Ride Easy
TTITLE1=Midnight Flyer - I'm Gonne Be With You
TTITLE2=Ine Wagenvoort - I Still Miss Someone
TTITLE3=Ben Iven - A Long Road
TTITLE4=Busted - Your Smile Broke Intp My Heart
TTITLE5=Andre Houtappels - San Antonio Rose
TTITLE6=Dixie Aces - Streets Of Bakerfield
TTITLE7=Ben Iven - Cajun Time
TTITLE8=Ninon - Wasn't That Love
TTITLE9=Black Hills Country Band - Leaving Louisiana
TTITLE10=Midnight Flyer - Whatever Way The Wind Blows
TTITLE11=Ine Wagenvoort - Never Ending Song Of Love
TTITLE12=Ben Iven - Gallia Polka
TTITLE13=Busted - The Fire Won't Stop
TTITLE14=Andre Houtappels - Highway 40 Blues
TTITLE15=Dixie Aces - Thank God For The Radio
TTITLE16=Ben Iven - In The Shadow Of The Black Hills
TTITLE17=Ninon - Singles Bar
EXTD=
EXTT0=
EXTT1=
EXTT2=
EXTT3=
EXTT4=
EXTT5=
EXTT6=
EXTT7=
EXTT8=
EXTT9=
EXTT10=
EXTT11=
EXTT12=
EXTT13=
EXTT14=
EXTT15=
EXTT16=
EXTT17=
PLAYORDER=
